<svg width="138" height="103" viewBox="0 0 138 103" fill="none" xmlns="http://www.w3.org/2000/svg">
<path d="M100.703 50.8126L98.2472 50.4761C96.1398 50.1835 94.0289 49.9237 91.9145 49.6966C88.9074 46.6798 85.3359 44.2865 81.4043 42.6536C77.4728 41.0207 73.2584 40.1802 69.0022 40.1802C64.746 40.1802 60.5316 41.0207 56.6 42.6536C52.6685 44.2865 49.097 46.6798 46.0898 49.6966C43.9782 49.9237 41.8687 50.1835 39.7613 50.4761L37.3013 50.8167C40.0414 46.8435 43.4966 43.4162 47.4899 40.7103C52.7999 37.1315 58.9158 34.9328 65.2861 34.3125C71.6564 33.6923 78.0806 34.67 83.9794 37.1575C90.7352 40.0268 96.5358 44.7631 100.703 50.8126Z" fill="white"/>
<path d="M115.324 52.8396L113.074 52.5261L102.907 51.1197C99.3336 45.4806 94.4146 40.8217 88.5938 37.5636C82.7729 34.3055 76.2335 32.5508 69.5659 32.4578C62.8984 32.3649 56.3128 33.9368 50.4037 37.0314C44.4945 40.1261 39.448 44.6461 35.7198 50.1834C35.5111 50.4927 35.3025 50.8104 35.1105 51.1197L24.9386 52.5261L22.6914 52.8396C26.2501 44.4981 31.9887 37.272 39.303 31.9225C46.6173 26.573 55.2365 23.2979 64.2529 22.4422C73.2693 21.5865 82.3493 23.1819 90.5366 27.0603C98.7238 30.9387 105.715 36.9566 110.775 44.4802C112.553 47.1154 114.076 49.9145 115.324 52.8396Z" fill="white"/>
<path d="M136.9 48.5847C136.93 49.6211 136.556 50.6285 135.857 51.3934C134.656 52.7523 133.339 54.0039 131.922 55.1342L129.209 54.7622C131.112 53.4128 132.856 51.8514 134.407 50.1082C134.768 49.7182 134.964 49.2025 134.953 48.6704C134.873 47.6155 134.633 46.579 134.242 45.5962C133.832 44.6219 133.269 43.7201 132.573 42.9254C132.398 42.7302 132.185 42.573 131.947 42.4634C131.709 42.3538 131.451 42.2941 131.189 42.288C128.775 42.1613 126.355 42.3078 123.974 42.7248C122.753 42.9337 121.533 43.22 120.316 43.5607C118.886 41.0386 117.272 38.6253 115.488 36.3403C116.263 35.3427 116.982 34.3208 117.646 33.2745C117.977 32.7499 118.299 32.2149 118.597 31.6758C118.895 31.1366 119.169 30.6078 119.432 30.0645C119.954 28.9869 120.415 27.8803 120.811 26.75C120.905 26.5043 120.949 26.2424 120.941 25.9795C120.933 25.7165 120.873 25.4578 120.765 25.2181C120.282 24.2779 119.665 23.4133 118.933 22.6518C118.173 21.921 117.308 21.3069 116.369 20.8295C116.129 20.719 115.87 20.6579 115.606 20.65C115.343 20.6421 115.081 20.6875 114.835 20.7835C113.713 21.177 112.615 21.634 111.544 22.1523C111.002 22.4136 110.47 22.6915 109.936 22.9883C109.402 23.285 108.867 23.6152 108.344 23.9412C107.299 24.6058 106.28 25.3261 105.287 26.1021C104.21 25.2662 103.111 24.4553 101.984 23.6905C100.715 22.8308 99.4119 22.0228 98.0737 21.2662C98.4096 20.0625 98.6934 18.8295 98.9021 17.6069C99.3134 15.2202 99.4575 12.7949 99.3319 10.3761C99.327 10.1128 99.2677 9.85347 99.1578 9.6143C99.0479 9.37513 98.8898 9.16132 98.6934 8.98633C97.9011 8.28981 97.0021 7.72533 96.031 7.31445C95.0495 6.92433 94.0146 6.68546 92.9617 6.60599C92.4296 6.59461 91.9141 6.79097 91.524 7.15353C88.8929 9.47117 86.6019 12.4241 84.7323 15.7386C81.9407 14.9635 79.0951 14.3991 76.2192 14.05C76.0669 12.7961 75.852 11.561 75.5933 10.351C75.0608 7.98861 74.2635 5.69404 73.2167 3.51094C73.1133 3.26896 72.961 3.05113 72.7691 2.87126C72.5773 2.69138 72.3503 2.55338 72.1025 2.46601C70.0982 1.75267 67.9097 1.75267 65.9054 2.46601C65.6567 2.55266 65.4287 2.69035 65.2361 2.87028C65.0436 3.05021 64.8906 3.26841 64.787 3.51094C63.7407 5.69219 62.9455 7.98555 62.4167 10.3468C62.1418 11.5661 61.9287 12.7986 61.7782 14.0396C58.9031 14.3944 56.0578 14.9594 53.2651 15.7302C51.3872 12.4199 49.1087 9.46072 46.4734 7.14935C46.0834 6.78679 45.5678 6.59043 45.0358 6.60181C43.9839 6.68217 42.9503 6.92247 41.9706 7.31445C40.9982 7.72526 40.0979 8.28973 39.304 8.98633C39.1085 9.16103 38.9511 9.37425 38.8416 9.61265C38.7321 9.85106 38.6729 10.1095 38.6676 10.3719C38.5413 12.7909 38.6869 15.2164 39.1016 17.6027C39.3159 18.8246 39.5941 20.0458 39.9363 21.2662C37.4167 22.6988 35.0058 24.3151 32.7231 26.1021C31.7409 25.3298 30.7207 24.6072 29.6663 23.9371C29.1426 23.6048 28.6042 23.2892 28.0701 22.9841C27.5359 22.679 27.0038 22.4115 26.4613 22.1482C25.3879 21.6306 24.2858 21.1749 23.1604 20.7835C22.9152 20.6876 22.6531 20.6422 22.39 20.6501C22.1268 20.658 21.868 20.719 21.6289 20.8295C20.689 21.3069 19.8249 21.921 19.0645 22.6518C18.3347 23.4148 17.7216 24.2817 17.2451 25.2244C17.1355 25.4624 17.0745 25.72 17.0655 25.9819C17.0566 26.2439 17.0999 26.505 17.1929 26.75C17.5886 27.8788 18.0484 28.984 18.57 30.0603C18.8308 30.6037 19.1084 31.1428 19.4046 31.6716C19.7009 32.2003 20.0306 32.7458 20.3561 33.2703C21.0175 34.3152 21.7353 35.3351 22.5115 36.3319C21.6769 37.4061 20.875 38.5095 20.1057 39.6422C19.2461 40.9108 18.4365 42.219 17.6853 43.5565C16.4689 43.22 15.2482 42.9296 14.0276 42.7206C11.6466 42.3034 9.22618 42.1569 6.81234 42.2838C6.54952 42.2899 6.29075 42.35 6.05206 42.4603C5.81338 42.5707 5.59988 42.729 5.42478 42.9254C4.72876 43.7201 4.16512 44.6219 3.75555 45.5962C3.36473 46.579 3.12484 47.6155 3.04403 48.6704C3.03075 49.2037 3.22879 49.7206 3.59488 50.1082C5.14109 51.8501 6.8815 53.4088 8.78204 54.7539L6.06953 55.1301C4.65084 53.998 3.33405 52.7435 2.1343 51.3809C1.44095 50.6169 1.07198 49.6124 1.10563 48.5805V48.5303C1.1982 47.2795 1.4796 46.0499 1.94025 44.8836C2.43022 43.7102 3.10667 42.6241 3.94333 41.6673C4.28945 41.2708 4.71291 40.9495 5.18765 40.7231C5.66239 40.4966 6.17837 40.3699 6.70384 40.3507C7.27972 40.3214 7.88273 40.3047 8.47114 40.3047C10.4384 40.3079 12.4019 40.4778 14.3406 40.8125C15.1356 40.9547 15.9368 41.1198 16.7401 41.3141C17.3118 40.359 17.8961 39.4333 18.4886 38.5555C18.9936 37.8115 19.5319 37.0634 20.0744 36.3194C19.5945 35.6527 19.1397 34.9777 18.7119 34.3006C18.3489 33.728 18.0108 33.1595 17.7041 32.612C17.3974 32.0645 17.0948 31.4709 16.8173 30.8983C16.2641 29.7569 15.7764 28.5846 15.3567 27.3874C15.1766 26.8938 15.0974 26.3689 15.1239 25.844C15.1505 25.3191 15.2821 24.8049 15.5111 24.332C16.0802 23.2277 16.8063 22.2119 17.6665 21.3164L17.725 21.2621C18.6222 20.3978 19.6425 19.6717 20.7526 19.1074C21.2657 18.8489 21.8327 18.7157 22.4072 18.7187C22.8768 18.7187 23.343 18.7979 23.7864 18.9528C24.9831 19.3732 26.1548 19.8616 27.296 20.4157C27.8635 20.6894 28.4394 20.9883 28.9986 21.2997C29.5578 21.6111 30.1211 21.9454 30.6887 22.3091C31.3689 22.7368 32.0422 23.1931 32.7085 23.6779C34.3172 22.4846 35.9864 21.3645 37.6932 20.3342C37.5013 19.5296 37.3364 18.7271 37.1945 17.935C36.7565 15.405 36.6018 12.8339 36.7334 10.2695C36.7534 9.74648 36.8799 9.23308 37.1053 8.76085C37.3306 8.28861 37.65 7.86752 38.0438 7.52343C38.997 6.68172 40.0819 6.00253 41.255 5.51301C42.4207 5.04927 43.6496 4.76394 44.9002 4.66662H44.9502C45.0066 4.66662 45.0608 4.66662 45.1172 4.66662C46.096 4.678 47.0363 5.04997 47.7587 5.71154C50.2774 7.96826 52.4443 10.5902 54.1874 13.4899C56.1273 13.0045 58.0905 12.6174 60.0694 12.3301C60.2085 11.5122 60.3622 10.7111 60.5305 9.92675C61.0913 7.42522 61.9312 4.99478 63.0343 2.68127C63.2562 2.19951 63.5743 1.76845 63.9691 1.41474C64.3639 1.06103 64.8269 0.792198 65.3295 0.624863C66.5025 0.242086 67.7247 0.0316108 68.958 0L69.0457 0C70.2883 0.0286101 71.52 0.239848 72.7013 0.626953C73.1966 0.795862 73.6524 1.06425 74.0406 1.41569C74.4288 1.76713 74.7413 2.19422 74.9589 2.67082C76.0643 4.98375 76.9076 7.41334 77.4732 9.91422C77.6485 10.7021 77.8008 11.5088 77.9344 12.3259C79.9145 12.6164 81.8821 13.0051 83.8163 13.4899C85.5612 10.5829 87.7325 7.9552 90.2575 5.69482C90.979 5.03896 91.9164 4.67219 92.8907 4.66453C92.9429 4.66453 92.9971 4.66453 93.0535 4.66453H93.1035C94.3508 4.75905 95.5768 5.04085 96.7404 5.50047C97.9118 5.99496 98.9945 6.67833 99.9453 7.52343C100.342 7.87033 100.663 8.29508 100.889 8.77138C101.116 9.24768 101.242 9.7654 101.26 10.2925C101.394 12.85 101.239 15.4144 100.799 17.9371C100.663 18.7334 100.496 19.5359 100.304 20.3404C101.256 20.9131 102.182 21.4982 103.056 22.0938C103.799 22.5975 104.546 23.1387 105.289 23.6842C105.955 23.1993 106.629 22.7438 107.305 22.3153C107.872 21.9559 108.44 21.6152 108.986 21.3059C109.533 20.9967 110.126 20.6957 110.697 20.4219C111.836 19.865 113.006 19.3765 114.203 18.9591C114.649 18.7999 115.12 18.7186 115.594 18.7187C116.174 18.715 116.746 18.8497 117.264 19.1116C118.37 19.6738 119.388 20.3971 120.283 21.2579L120.341 21.3122C121.198 22.2133 121.918 23.2349 122.48 24.3446C122.708 24.8155 122.839 25.3278 122.865 25.8506C122.891 26.3735 122.811 26.8962 122.63 27.3874C122.214 28.5873 121.726 29.7611 121.17 30.9025C120.892 31.4751 120.598 32.0477 120.287 32.612C119.976 33.1763 119.638 33.7322 119.279 34.3048C118.847 34.9819 118.393 35.6569 117.908 36.3277C119.104 37.9348 120.218 39.6067 121.247 41.3183C122.05 41.1239 122.851 40.9588 123.642 40.8167C125.582 40.4822 127.547 40.3123 129.516 40.3089C130.108 40.3089 130.707 40.3256 131.292 40.3549C131.814 40.3741 132.327 40.5 132.798 40.725C133.27 40.95 133.691 41.2692 134.035 41.6631C134.875 42.6181 135.553 43.7046 136.043 44.8794C136.51 46.0471 136.795 47.2799 136.888 48.5345L136.9 48.5847Z" fill="white"/>
<path d="M133.187 49.8635C133.187 50.1081 128.362 53.3431 124.137 53.8489L124.027 53.8907L118.919 53.1843L117.371 52.9753L117.354 52.9063C114.108 44.9224 108.943 37.8653 102.318 32.3625C95.693 26.8597 87.813 23.0817 79.3787 21.3643C75.955 20.6757 72.4714 20.3292 68.9793 20.3299C58.9947 20.3283 49.2187 23.1931 40.8094 28.5848C32.4002 33.9765 25.71 41.6692 21.5313 50.7517C21.5 50.8123 21.4749 50.8729 21.4499 50.9356C21.2818 51.3533 21.1424 51.7821 21.0326 52.2188L21.0159 52.2836C20.9345 52.5991 20.8803 52.8604 20.849 53.0067L20.8302 53.1007L19.0358 53.3473L14.3974 53.9889L14.268 54.0056C9.38967 52.992 4.47168 49.153 4.47168 49.153C4.50924 48.6535 5.3063 46.6577 5.4148 46.409C5.41401 46.4007 5.41401 46.3923 5.4148 46.3839C5.42586 46.3433 5.4398 46.3035 5.45653 46.2648C5.78577 45.4952 6.2359 44.7833 6.78983 44.1562C6.81402 44.1523 6.83867 44.1523 6.86286 44.1562C7.39076 44.1248 7.92074 44.1123 8.44655 44.1123C10.195 44.1147 11.9402 44.2664 13.6629 44.5658C14.8361 44.7683 15.9984 45.0298 17.1454 45.3495L18.558 45.7424L19.2841 44.4634C20.0352 43.1384 20.8198 41.8636 21.6273 40.6724C22.3471 39.6024 23.1296 38.5261 23.9579 37.4687L24.8572 36.3109L23.9579 35.1531C23.2151 34.1981 22.5287 33.22 21.9089 32.2441C21.5834 31.7321 21.283 31.2221 21.0076 30.731C20.7321 30.2399 20.4734 29.7321 20.2272 29.218C19.7393 28.2115 19.3088 27.1782 18.9377 26.1229C18.9258 26.0869 18.9174 26.0498 18.9127 26.0122C19.2976 25.2669 19.7842 24.579 20.3586 23.9683C20.9685 23.3937 21.6554 22.907 22.3993 22.5221C22.4401 22.5231 22.4805 22.5316 22.5182 22.5472C23.5724 22.9135 24.6049 23.3398 25.6105 23.8241C26.1217 24.0728 26.6287 24.3382 27.1295 24.612C27.6303 24.8857 28.1143 25.1846 28.6318 25.5085C29.6041 26.1355 30.5869 26.8209 31.5384 27.5649L32.6943 28.4677L33.8482 27.5607C36.0599 25.8331 38.3939 24.2685 40.8318 22.8795L42.1067 22.1522L41.7144 20.7374C41.391 19.5671 41.1219 18.3947 40.9216 17.2494C40.5288 15.0062 40.3888 12.7258 40.5042 10.4512C40.5005 10.4242 40.5005 10.3967 40.5042 10.3697C41.1342 9.81526 41.8475 9.36388 42.6179 9.03218C43.4021 8.71695 44.2294 8.52248 45.0717 8.45539C45.1084 8.47414 45.1428 8.4973 45.1739 8.52435C47.6131 10.6581 49.7643 13.3853 51.6005 16.635L52.3266 17.914L53.7392 17.5211C56.4395 16.775 59.1907 16.2274 61.9706 15.8827L63.4312 15.703L63.6107 14.2401C63.7609 13.0426 63.9654 11.8576 64.2178 10.725C64.721 8.50834 65.4698 6.35498 66.4505 4.30496C66.4649 4.27469 66.4824 4.24598 66.5026 4.21927C68.1014 3.65087 69.8468 3.65087 71.4456 4.21927C71.4582 4.23808 71.4749 4.26734 71.4957 4.30496C72.4784 6.3588 73.226 8.5174 73.7242 10.7396C73.9808 11.8681 74.1853 13.053 74.3355 14.2547L74.515 15.7176L75.9755 15.8973C78.7586 16.2381 81.5126 16.7844 84.2153 17.5316L85.6279 17.9203L86.3498 16.6413C88.1777 13.3853 90.3331 10.6581 92.7409 8.53898C92.7752 8.50571 92.8156 8.47945 92.8599 8.46166C93.7042 8.53139 94.5334 8.72721 95.3199 9.04263C96.0861 9.37212 96.7948 9.82224 97.419 10.376C97.428 10.3999 97.4356 10.4243 97.4419 10.4491C97.5564 12.7306 97.4164 15.0178 97.0246 17.2683C96.816 18.4051 96.5593 19.5817 96.2359 20.7437L95.8353 22.1522L97.1123 22.8795C98.4351 23.6318 99.7121 24.4239 100.899 25.2264C101.966 25.9495 103.042 26.7311 104.1 27.5607L105.252 28.4635L106.41 27.5607C107.366 26.8167 108.342 26.1292 109.316 25.5085C109.828 25.1888 110.333 24.8816 110.823 24.6078C111.313 24.334 111.827 24.0728 112.334 23.8241C113.342 23.3353 114.377 22.9048 115.434 22.5347C115.47 22.522 115.507 22.5129 115.545 22.5075C116.29 22.8922 116.977 23.3805 117.585 23.9578C118.162 24.5672 118.648 25.2553 119.031 26.0017C119.029 26.0424 119.02 26.0825 119.006 26.1208C118.635 27.1756 118.206 28.2088 117.721 29.2159C117.473 29.73 117.21 30.242 116.932 30.7373C116.655 31.2326 116.361 31.73 116.035 32.2378C115.409 33.2179 114.729 34.2002 113.986 35.1636L113.091 36.3151L113.992 37.4729C115.721 39.6841 117.283 42.0206 118.666 44.4634L119.392 45.7424L120.805 45.3495C121.95 45.027 123.111 44.7626 124.283 44.5574C126.006 44.2573 127.751 44.1056 129.5 44.1039C130.025 44.1039 130.555 44.1165 131.071 44.1478C131.099 44.1443 131.128 44.1443 131.156 44.1478C131.71 44.7786 132.161 45.4931 132.492 46.2648C132.769 46.9776 132.95 47.7238 133.032 48.4842C133.032 48.4842 133.187 49.6148 133.187 49.8635Z" fill="white"/>
<path d="M20.8176 53.0967L20.8155 53.105L20.8113 53.1259L15.4927 53.8344L14.3848 53.9849L19.0232 53.3433L20.8176 53.0967Z" fill="white"/>
<path d="M11.1025 82.3735L9.97786 82.2126L9.00136 82.0705L8.07285 81.9325L7.09634 81.7862L5.97378 81.6128V67.1051L4.86583 67.2117L3.8935 67.3099L2.98585 67.3998L2.08655 67.5022L1.11422 67.6046L0 67.7112V64.4761L1.17055 64.2671L2.27851 64.079C2.63739 64.0163 2.98793 63.9578 3.33221 63.9014L4.34002 63.7405L5.31026 63.5816L6.25338 63.4312L7.17563 63.287L8.08537 63.1448L8.99093 63.0069L9.90066 62.8711L10.8229 62.7331L11.766 62.5973L12.7384 62.4573L13.7503 62.3152L14.8082 62.1689L15.9203 62.0184L17.0951 61.8638V66.1271L15.985 66.2148L15.0085 66.2942L14.0988 66.3716L13.187 66.4572L12.2105 66.5429L11.1025 66.6391V82.3819V82.3735Z" fill="white"/>
<path d="M34.9791 85.0564L33.8231 84.9582L32.7319 84.8642L31.6886 84.7701L30.6996 84.6803L29.7481 84.5904L28.8258 84.5005L27.9203 84.4107L27.0252 84.3208L26.13 84.2268L25.2266 84.1327L24.3043 84.0324L23.3528 83.9279L22.3659 83.8172L21.3226 83.698L20.2334 83.5685L19.0796 83.4305V61.6084L20.2334 61.4663L21.3226 61.3346L22.3659 61.2113L23.3528 61.0964L24.3043 60.9898L25.2266 60.8874L26.13 60.7892L27.0252 60.6931L27.9203 60.6011L28.8258 60.5071L29.7481 60.4151L30.6996 60.3231L31.6886 60.2291L32.7319 60.1351L33.8231 60.0368L34.9791 59.9365V64.9521L33.8586 65.0107L32.8153 65.0671L31.8493 65.1193L30.9312 65.1737L30.0423 65.2238L29.1618 65.2782L28.2729 65.3325L27.3548 65.3889L26.3888 65.4516L25.3455 65.5185L24.225 65.5937V70.0346L25.2933 70.0075L26.2636 69.9845L27.1629 69.9636L28.0225 69.9427L28.8697 69.9239L29.7293 69.903L30.6307 69.8842L31.601 69.8633L32.6714 69.8403V74.7849L31.601 74.7681L30.6307 74.7514L29.7293 74.7368L28.8697 74.7222L28.0225 74.7075L27.1629 74.6929L26.2636 74.6783L25.2933 74.6595L24.225 74.6386V79.4139L25.3455 79.4849L26.3888 79.5497L27.3548 79.6082L28.2729 79.6626L29.1618 79.7148L30.0423 79.765L30.9312 79.8151L31.8493 79.8653L32.8153 79.9154L33.8586 79.9698L34.9791 80.0262V85.0418V85.0564Z" fill="white"/>
<path d="M42.4364 80.3567L43.5297 80.3985L44.5396 80.4341L45.4869 80.4591L46.382 80.4884L47.25 80.5156L48.1076 80.5427L48.9756 80.5678L49.8707 80.5929L50.8138 80.6201L51.8237 80.6451L52.9171 80.6702V86.1372L51.7799 86.0913L50.7053 86.0453L49.685 85.9993L48.7127 85.9512L47.7821 85.9136L46.8744 85.8656L45.9835 85.8175L45.1009 85.7673L44.2203 85.7151L43.3294 85.6587L42.4217 85.6022L41.4849 85.5395L40.5126 85.4748L39.4943 85.4016L38.4197 85.3243L37.2847 85.2386V59.7425L38.4156 59.6527L39.3983 59.5795L40.331 59.5105L41.3138 59.4416L42.4468 59.3643V80.3567H42.4364Z" fill="white"/>
<path d="M70.8675 86.4546H69.7074C69.3318 86.4546 68.9688 86.4546 68.612 86.4546H67.5687H66.5755H65.6219H64.6955L63.7879 86.4441L62.8886 86.4316L61.9893 86.417L61.0816 86.4002L60.1552 86.3814L59.2016 86.3605L58.2147 86.3104L57.1714 86.2811L56.076 86.2498L54.918 86.2101V58.737L56.076 58.6973L57.1714 58.6638L58.2147 58.6346L59.2058 58.6095L60.1594 58.5865L61.0858 58.5677L61.9934 58.551L62.8927 58.5364L63.792 58.5238L64.6997 58.5134L65.6261 58.5029H66.5797H67.5729H69.7053H70.8654V64.0954H66.8134H65.9224H65.0398H64.1468H63.2266H62.2563L61.2131 64.1058L60.0884 64.1204V69.4767H61.1588H62.1332H63.0388H68.564V75.0691H62.1395H61.1651H60.0947V80.8224L61.2193 80.8371L62.2626 80.8475H63.2329H64.153H65.0461H65.9287H66.8196H70.8738V86.4399L70.8675 86.4546Z" fill="white"/>
<path d="M81.611 84.8476C81.4388 85.09 81.2431 85.3147 81.0268 85.5185C80.8122 85.7173 80.578 85.8937 80.3278 86.0451C80.0699 86.1999 79.7973 86.3287 79.514 86.4297C79.2129 86.5374 78.9029 86.6185 78.5876 86.6721C78.2427 86.7298 77.894 86.762 77.5443 86.7682C77.2397 86.7682 76.933 86.7682 76.6221 86.7682C76.3112 86.7682 75.9961 86.7682 75.679 86.7515C75.3618 86.7348 75.053 86.7285 74.7192 86.7097C74.3853 86.6909 74.0702 86.6721 73.7406 86.6449C73.4109 86.6177 73.0791 86.5906 72.7432 86.5571C72.4073 86.5237 72.0692 86.484 71.7271 86.4422V81.0609C72.0254 81.0859 72.3259 81.1089 72.6284 81.1277C72.931 81.1465 73.2335 81.1633 73.5382 81.1779C73.8428 81.1925 74.1495 81.203 74.4583 81.2113C74.7671 81.2197 75.0843 81.2239 75.3868 81.226C75.6894 81.228 76.0128 81.226 76.3237 81.226C76.5296 81.2277 76.7329 81.1797 76.9163 81.0859C77.0984 80.9879 77.255 80.8483 77.3732 80.6784C77.5071 80.4888 77.6053 80.2763 77.6633 80.0515C77.7315 79.7831 77.7645 79.507 77.7613 79.2301V64.1415L76.7577 64.1289H75.8939H75.0301H74.0264V58.5156L75.1532 58.5303L76.1756 58.547L77.127 58.5658L78.0326 58.5846L78.9256 58.6055L79.8312 58.6306L80.7806 58.6577L81.8051 58.6891L82.9318 58.7267V79.1486C82.9318 79.5771 82.9193 79.9846 82.8942 80.3754C82.8692 80.7662 82.8337 81.1382 82.7837 81.4914C82.7336 81.8445 82.6731 82.1789 82.6 82.4945C82.5311 82.7972 82.4454 83.0958 82.3434 83.3889C82.2506 83.6564 82.1405 83.9175 82.0137 84.1705C81.8965 84.4044 81.7611 84.6287 81.6089 84.8414L81.611 84.8476Z" fill="white"/>
<path d="M102.303 85.113L101.145 85.205L100.054 85.2886L99.0106 85.3659L98.0195 85.437L97.068 85.5038L96.1416 85.5644L95.236 85.623C94.9356 85.6439 94.6372 85.6627 94.3367 85.6794L93.4395 85.7337L92.534 85.7881L91.6075 85.8382L90.654 85.8905L89.6629 85.9406L88.6196 85.9929L87.5262 86.043L86.3828 86.1015V58.8667L87.5429 58.9189L88.6363 58.9712L89.6796 59.0234L90.6707 59.0757L91.6242 59.1279L92.5506 59.1823L93.4562 59.2366C93.7567 59.2554 94.055 59.2721 94.3534 59.293L95.2527 59.3495L96.1583 59.4101L97.0847 59.4748L98.0362 59.5417L99.0273 59.6149L100.071 59.6943L101.162 59.7821L102.32 59.8761V64.9231L101.197 64.8687L100.154 64.8186L99.1859 64.7726L98.2657 64.7308L97.3747 64.6932L96.4942 64.6556L95.6033 64.618L94.6831 64.5824L93.7149 64.5448L92.6717 64.5072L91.547 64.4675V69.621L92.6195 69.6357L93.5918 69.6482L94.4953 69.6607L95.357 69.6733L96.2042 69.6858L97.0659 69.7004L97.9694 69.7151L98.9417 69.7297L100.012 69.7485V74.8686L98.9417 74.8833L97.9694 74.8937L97.0659 74.9062H96.2042H95.357L94.4953 74.9167H93.5918L92.6195 74.9271H91.547V80.4611L92.6717 80.4234L93.7149 80.3879L94.6831 80.3524L95.6033 80.3189L96.4942 80.2834L97.3747 80.2479L98.2657 80.2103L99.1859 80.1706L100.154 80.1288L101.197 80.0807L102.32 80.0285V85.0754L102.303 85.113Z" fill="white"/>
<path d="M120.047 82.9794L118.908 83.2239C118.532 83.3033 118.165 83.3806 117.802 83.4538L116.734 83.6627L115.69 83.8613L114.693 84.0452L113.731 84.2124L112.805 84.3628L111.914 84.4987C111.624 84.5405 111.338 84.5802 111.06 84.6157C110.783 84.6513 110.507 84.6868 110.24 84.7181C109.973 84.7495 109.713 84.7787 109.458 84.8038C109.105 84.8427 108.749 84.8573 108.394 84.8477C108.077 84.8412 107.762 84.8077 107.451 84.7474C107.168 84.6945 106.892 84.6126 106.627 84.5029C106.377 84.3997 106.14 84.2694 105.919 84.1142C105.703 83.9587 105.507 83.7785 105.333 83.5771C105.182 83.4023 105.047 83.2141 104.93 83.0149C104.804 82.7991 104.694 82.5742 104.6 82.342C104.498 82.0866 104.412 81.8248 104.344 81.5583C104.268 81.2635 104.207 80.9649 104.162 80.6638C104.112 80.3462 104.077 80.0118 104.052 79.6586C104.027 79.3054 104.014 78.9355 104.014 78.5489V67.1509C104.014 66.7329 104.027 66.338 104.054 65.9618C104.081 65.5856 104.116 65.2282 104.166 64.8918C104.213 64.5723 104.276 64.2556 104.356 63.943C104.426 63.6591 104.514 63.3799 104.619 63.1071C104.715 62.8635 104.829 62.6274 104.959 62.4007C105.08 62.1931 105.22 61.9972 105.377 61.8155C105.557 61.6076 105.761 61.4223 105.986 61.2638C106.217 61.1019 106.467 60.9673 106.729 60.8626C107.01 60.7502 107.303 60.6662 107.601 60.6118C107.933 60.5515 108.269 60.5179 108.607 60.5115C108.986 60.5041 109.366 60.5208 109.744 60.5616L110.923 60.6828L112.004 60.7978L113.007 60.9085L113.963 61.0151L114.896 61.1217L115.826 61.2304L116.78 61.3432L117.785 61.4644L118.862 61.5982L120.039 61.7487V66.0558L118.883 65.966L117.84 65.8865L116.863 65.8155L115.933 65.7486L115.017 65.6838L114.086 65.619L113.107 65.5522L112.064 65.4832L110.906 65.408C110.579 65.3731 110.248 65.431 109.952 65.5752C109.691 65.7182 109.488 65.9481 109.379 66.2251C109.24 66.5862 109.176 66.9713 109.189 67.3578V78.3232C109.185 78.5608 109.217 78.7976 109.285 79.0254C109.343 79.2195 109.442 79.399 109.575 79.552C109.695 79.6911 109.845 79.7999 110.015 79.8697C110.189 79.938 110.376 79.9659 110.562 79.9512L111.188 79.9073L111.874 79.8488L112.604 79.7819L113.362 79.7025L114.134 79.6231L114.916 79.5374C115.179 79.5081 115.48 79.4705 115.818 79.4266C116.156 79.3828 116.533 79.3284 116.947 79.2678L117.608 79.1717L118.345 79.0651L119.158 78.9502L120.047 78.8269V82.9794Z" fill="white"/>
<path d="M132.026 81.6126L130.904 81.786L129.927 81.9323L128.998 82.0702L128.022 82.2124L126.897 82.3733V66.6305L125.787 66.5344L124.813 66.4487L123.901 66.3734L122.991 66.2961L122.015 66.2167L120.905 66.1289V61.8594L122.08 62.014L123.192 62.1645L124.25 62.3108L125.259 62.4529L126.234 62.5929L127.177 62.7288L128.099 62.8667L129.011 63.0025L129.914 63.1404L130.824 63.2826L131.746 63.4268L132.69 63.5772L133.66 63.734L134.668 63.9011L135.723 64.0767L136.829 64.2669L138 64.4759V67.7109L136.894 67.5939L135.922 67.4936L135.014 67.4016L134.108 67.3118L133.134 67.2136L132.026 67.107V81.6147V81.6126Z" fill="white"/>
<path d="M46.4277 93.9048H50.7824V95.188H49.3093V102.885H47.8988V95.188H46.4277V93.9048Z" fill="white"/>
<path d="M55.2937 93.9048V100.831C55.2937 101.474 55.5754 101.704 56.024 101.704C56.4726 101.704 56.7522 101.474 56.7522 100.831V93.9048H58.0855V100.743C58.0855 102.178 57.3677 103 55.9843 103C54.6009 103 53.8853 102.178 53.8853 100.743V93.9048H55.2937Z" fill="white"/>
<path d="M62.8697 96.3813V102.885H61.6011V93.9048H63.3684L64.8164 99.2778V93.9048H66.0725V102.885H64.6245L62.8697 96.3813Z" fill="white"/>
<path d="M71.053 93.9048H69.6445V102.885H71.053V93.9048Z" fill="white"/>
<path d="M76.5326 93.8003C77.9035 93.8003 78.6087 94.6216 78.6087 96.0594V96.3415H77.2775V95.9696C77.2775 95.328 77.0209 95.0855 76.5723 95.0855C76.1237 95.0855 75.867 95.328 75.867 95.9696C75.867 97.817 78.6212 98.1639 78.6212 100.728C78.6212 102.166 77.9035 102.987 76.5201 102.987C75.1367 102.987 74.4189 102.166 74.4189 100.728V100.176H75.7522V100.818C75.7522 101.46 76.0339 101.692 76.4825 101.692C76.9311 101.692 77.2128 101.46 77.2128 100.818C77.2128 98.9706 74.4586 98.6237 74.4586 96.0594C74.4586 94.6216 75.1618 93.8003 76.5326 93.8003Z" fill="white"/>
<path d="M83.3972 93.9048H81.9888V102.885H83.3972V93.9048Z" fill="white"/>
<path d="M90.1094 93.9048H88.0521L86.6187 102.891H87.9123L88.1543 101.261H89.8841L90.1282 102.891H91.5492L90.1094 93.9048ZM88.3275 100.036L89.0077 95.5056L89.6859 100.047L88.3275 100.036Z" fill="white"/>
</svg>
